<?xml version="1.0" encoding="iso-8859-1"?>
<!-- Generator: Adobe Illustrator 19.0.0, SVG Export Plug-In . SVG Version: 6.00 Build 0)  -->
<svg version="1.1" id="Layer_1" xmlns="http://www.w3.org/2000/svg" xmlns:xlink="http://www.w3.org/1999/xlink" x="0px" y="0px"
	 viewBox="0 0 512 512" style="enable-background:new 0 0 512 512;" xml:space="preserve">
<g>
	<g>
		<path d="M346.353,168.748v-13.155c25.502-16.921,40.157-40.432,40.157-65.24C386.51,40.534,327.961,0,256,0
			S125.49,40.534,125.49,90.353c0,24.773,14.662,48.361,40.157,65.267v13.128c-17.971,10.418-30.118,29.825-30.118,52.056v231.019
			c0,29.78,21.762,54.51,50.196,59.28V512h9.961h10.117h40.157h20.078h40.157h10.118h9.961v-0.897
			c28.434-4.77,50.196-29.5,50.196-59.28V220.804C376.471,198.572,364.324,179.165,346.353,168.748z M145.569,90.353
			c0-38.75,49.539-70.275,110.431-70.275s110.431,31.524,110.431,70.275c0,14.68-7.632,29.072-21.238,41.023
			c-4.184-17.718-20.076-30.984-39.096-30.984H205.902c-19.03,0-34.927,13.277-39.103,31.007
			C153.071,119.447,145.569,105.254,145.569,90.353z M326.275,140.549v20.078h-9.961H195.686h-9.961v-20.078
			c0-11.073,9.049-20.078,20.177-20.078h100.196C317.225,120.471,326.275,129.476,326.275,140.549z M356.392,451.823
			c0,18.648-12.853,34.229-30.118,38.692V281.098h-20.078v210.824h-40.157V281.098h-20.078v210.824h-40.157V281.098h-20.078v209.418
			c-17.265-4.463-30.118-20.044-30.118-38.692V220.804c0-22.108,17.98-40.098,40.079-40.098h120.627
			c22.098,0,40.078,17.99,40.078,40.098V451.823z"/>
	</g>
</g>
<g>
	<g>
		<path d="M185.725,60.235c-11.069,0-20.078,9.005-20.078,20.078c0,11.074,9.01,20.078,20.078,20.078
			c11.069,0,20.078-9.005,20.078-20.078C205.804,69.24,196.794,60.235,185.725,60.235z"/>
	</g>
</g>
<g>
	<g>
		<path d="M256,30.118c-11.069,0-20.078,9.005-20.078,20.078c0,11.073,9.01,20.078,20.078,20.078
			c11.069,0,20.078-9.005,20.078-20.078C276.078,39.123,267.069,30.118,256,30.118z"/>
	</g>
</g>
<g>
	<g>
		<path d="M316.235,50.196c-11.069,0-20.078,9.005-20.078,20.078c0,11.073,9.01,20.078,20.078,20.078s20.078-9.005,20.078-20.078
			C336.314,59.201,327.304,50.196,316.235,50.196z"/>
	</g>
</g>
<g>
</g>
<g>
</g>
<g>
</g>
<g>
</g>
<g>
</g>
<g>
</g>
<g>
</g>
<g>
</g>
<g>
</g>
<g>
</g>
<g>
</g>
<g>
</g>
<g>
</g>
<g>
</g>
<g>
</g>
</svg>
